# xmcd
#
# Track frame offsets:
#	150
#	19520
#	42030
#	64920
#	86382
#	121867
#	137330
#	158712
#	188385
#	214245
#
# Disc length: 3424 seconds
# Revision: 4
# Processed by: cddbd v1.5.2PL0 Copyright (c) Steve Scherf et al.
# Submitted via: dBpowerAMP V12.0
#
DISCID=720d5e0a
DTITLE=Various Artist - A Tribute To Stevie Ray Vaughan
DYEAR=1900
DGENRE=Blues
TTITLE0=Bonnie Raitt - Pride and Joy
TTITLE1=Jimmie Vaughan - Texas Flood
TTITLE2=B.B.King - Telaphone Blues
TTITLE3=Buddy Guy - Lomg Way From Home
TTITLE4=Eric Clapton - Ain't Gone's Give Up On Your Love
TTITLE5=Robert Cray - Love Struck Baby
TTITLE6=Dr. John - Cold Shot
TTITLE7=Jimmy Vaughan,Eric Clapton,Bonnie Raitt,Robert Cray,B.B.King,Buddy Guy,Dr.John,Art Neville - Six Strings Down
TTITLE8=Jimmy Vaughan,Eric Clapton,Bonnie Raitt,Robert Cray,B.B.King,Buddy Guy,Dr.John,Art Neville - Tick Tock
TTITLE9=Jimmy Vaughan,Eric Clapton,Bonnie Raitt,Robert Cray,B.B.King,Buddy Guy,Dr.John,Art Neville - SRV Shuffle
EXTD=
EXTT0=
EXTT1=
EXTT2=
EXTT3=
EXTT4=
EXTT5=
EXTT6=
EXTT7=
EXTT8=
EXTT9=
PLAYORDER=
